<!--?xml version="1.0" standalone="no"?-->
              <svg id="sw-js-blob-svg" viewBox="0 0 100 100" xmlns="http://www.w3.org/2000/svg" version="1.1">
                    <defs> 
                        <linearGradient id="sw-gradient" x1="0" x2="1" y1="1" y2="0">
                            <stop id="stop1" stop-color="rgba(248, 117, 55, 1)" offset="0%"></stop>
                            <stop id="stop2" stop-color="rgba(251, 168, 31, 1)" offset="100%"></stop>
                        </linearGradient>
                    </defs>
                <path fill="url(#sw-gradient)" d="M22.8,-25.7C29.7,-21.4,35.5,-14.3,37.8,-6C40.1,2.4,39,12.2,34.3,19.3C29.6,26.5,21.3,31.2,13.1,32.7C5,34.2,-3.1,32.5,-12,30.4C-20.8,28.2,-30.4,25.7,-35.2,19.3C-40,13,-40.1,3,-38.2,-6.5C-36.2,-16,-32.3,-24.9,-25.6,-29.2C-18.9,-33.5,-9.5,-33.1,-0.8,-32.2C8,-31.3,15.9,-29.9,22.8,-25.7Z" width="100%" height="100%" transform="translate(50 50)" stroke-width="0" style="transition: all 0.3s ease 0s;"></path>
              </svg>