<svg id="visual" viewBox="0 0 900 600" width="900" height="600" xmlns="http://www.w3.org/2000/svg" xmlns:xlink="http://www.w3.org/1999/xlink" version="1.1"><path d="M0 169L82 169L164 247L245 121L327 97L409 121L491 139L573 139L655 193L736 241L818 97L900 187L900 0L818 0L736 0L655 0L573 0L491 0L409 0L327 0L245 0L164 0L82 0L0 0Z" fill="#555555"></path><path d="M0 313L82 325L164 325L245 253L327 235L409 223L491 229L573 235L655 325L736 355L818 223L900 325L900 185L818 95L736 239L655 191L573 137L491 137L409 119L327 95L245 119L164 245L82 167L0 167Z" fill="#675457"></path><path d="M0 451L82 463L164 475L245 433L327 421L409 391L491 403L573 445L655 433L736 445L818 427L900 409L900 323L818 221L736 353L655 323L573 233L491 227L409 221L327 233L245 251L164 323L82 323L0 311Z" fill="#78535a"></path><path d="M0 529L82 547L164 541L245 535L327 499L409 499L491 523L573 565L655 541L736 541L818 499L900 529L900 407L818 425L736 443L655 431L573 443L491 401L409 389L327 419L245 431L164 473L82 461L0 449Z" fill="#89515d"></path><path d="M0 601L82 601L164 601L245 601L327 601L409 601L491 601L573 601L655 601L736 601L818 601L900 601L900 527L818 497L736 539L655 539L573 563L491 521L409 497L327 497L245 533L164 539L82 545L0 527Z" fill="#994d60"></path></svg>